<?xml version="1.0" standalone="no"?>
<!DOCTYPE svg PUBLIC "-//W3C//DTD SVG 20010904//EN"
 "http://www.w3.org/TR/2001/REC-SVG-20010904/DTD/svg10.dtd">
<svg version="1.0" xmlns="http://www.w3.org/2000/svg"
 width="481.000000pt" height="481.000000pt" viewBox="0 0 481.000000 481.000000"
 preserveAspectRatio="xMidYMid meet">
<metadata>
Created by potrace 1.11, written by Peter Selinger 2001-2013
</metadata>
<g transform="translate(0.000000,481.000000) scale(0.100000,-0.100000)"
fill="#000000" stroke="none">
<path d="M2468 4775 c-562 -68 -1098 -290 -1558 -645 -124 -96 -405 -376 -510
-510 -179 -226 -232 -331 -214 -427 17 -94 93 -188 173 -211 80 -25 206 -7
268 37 13 9 51 57 85 106 426 620 1047 1002 1798 1106 125 18 507 18 630 1
352 -50 730 -181 997 -348 95 -59 133 -74 191 -74 163 0 282 114 282 271 0
135 -58 198 -304 333 -364 198 -775 326 -1175 366 -140 14 -531 11 -663 -5z"/>
<path d="M2529 3946 c-2 -2 -67 -20 -144 -40 -77 -20 -151 -42 -163 -48 -28
-15 -52 -57 -52 -94 0 -35 59 -94 95 -94 30 0 317 75 346 90 21 12 49 60 49
85 0 29 -30 74 -60 90 -28 14 -62 20 -71 11z"/>
<path d="M3258 3793 c-51 -32 -62 -118 -20 -156 31 -28 312 -157 342 -157 37
0 87 42 95 80 4 18 0 42 -10 63 -14 29 -36 44 -173 110 -86 43 -168 77 -182
77 -14 0 -37 -8 -52 -17z"/>
<path d="M1562 3478 c-94 -14 -182 -70 -231 -147 -114 -177 -51 -406 138 -499
48 -23 68 -27 146 -27 76 0 99 4 146 26 72 34 134 96 168 168 22 47 26 70 26
141 0 72 -4 94 -28 145 -66 140 -211 217 -365 193z"/>
<path d="M2730 3343 c-24 -10 -276 -181 -289 -197 -7 -8 -15 -33 -18 -54 -4
-33 -1 -44 25 -73 25 -28 37 -34 70 -34 35 0 60 14 170 88 71 48 138 97 149
110 70 77 -10 197 -107 160z"/>
<path d="M3235 2991 c-106 -19 -215 -112 -255 -217 -18 -48 -21 -74 -18 -139
7 -133 69 -230 186 -287 60 -30 76 -33 152 -33 76 0 92 3 152 33 73 36 124 87
160 161 19 39 23 62 23 146 0 89 -3 106 -27 150 -71 134 -229 212 -373 186z"/>
<path d="M1731 2426 c-51 -28 -66 -104 -30 -149 16 -21 55 -38 176 -77 173
-55 208 -60 246 -30 51 40 44 136 -12 164 -40 21 -311 106 -335 106 -12 -1
-32 -7 -45 -14z"/>
<path d="M2619 2066 c-172 -46 -282 -219 -249 -390 64 -330 503 -388 648 -86
23 47 27 68 27 145 0 78 -4 97 -28 147 -72 147 -243 226 -398 184z"/>
<path d="M3071 1164 c-26 -22 -39 -52 -82 -186 -56 -177 -58 -212 -12 -248 34
-26 92 -26 126 0 20 16 38 56 77 175 54 164 59 208 32 241 -40 50 -95 57 -141
18z"/>
</g>
</svg>
